<svg width="71" height="62" viewBox="0 0 71 62" fill="none" xmlns="http://www.w3.org/2000/svg">
<path d="M4.81597 35.7215H56.5635L40.7251 54.7451C40.3584 55.1863 40.0821 55.6954 39.9122 56.2433C39.7422 56.7913 39.6819 57.3673 39.7345 57.9386C39.8409 59.0923 40.4012 60.1566 41.2923 60.8972C42.1833 61.6378 43.3321 61.9941 44.4858 61.8877C45.6395 61.7813 46.7038 61.221 47.4444 60.33L69.2604 34.1508C69.4071 33.9426 69.5384 33.7238 69.653 33.4963C69.653 33.2781 69.8712 33.1472 69.9585 32.9291C70.1562 32.4288 70.2598 31.8963 70.2639 31.3583C70.2598 30.8204 70.1562 30.2879 69.9585 29.7876C69.9585 29.5694 69.7403 29.4385 69.653 29.2204C69.5384 28.9929 69.4071 28.7741 69.2604 28.5659L47.4444 2.38672C47.0341 1.8942 46.5204 1.4981 45.9398 1.22662C45.3591 0.955139 44.7257 0.814933 44.0847 0.815974C43.0653 0.813982 42.0773 1.16904 41.2923 1.81951C40.8505 2.1858 40.4853 2.63564 40.2176 3.14329C39.9499 3.65093 39.785 4.2064 39.7323 4.77788C39.6796 5.34936 39.7402 5.92561 39.9105 6.47365C40.0809 7.02168 40.3577 7.53072 40.7251 7.97161L56.5635 26.9951H4.81597C3.65878 26.9951 2.54898 27.4548 1.73073 28.2731C0.912467 29.0914 0.452774 30.2011 0.452774 31.3583C0.452774 32.5155 0.912467 33.6253 1.73073 34.4436C2.54898 35.2618 3.65878 35.7215 4.81597 35.7215Z" fill="#231F20"/>
</svg>
