<?xml version="1.0" standalone="no"?>
<!DOCTYPE svg PUBLIC "-//W3C//DTD SVG 20010904//EN"
 "http://www.w3.org/TR/2001/REC-SVG-20010904/DTD/svg10.dtd">
<svg version="1.0" xmlns="http://www.w3.org/2000/svg"
 width="584.000000pt" height="636.000000pt" viewBox="0 0 584.000000 636.000000"
 preserveAspectRatio="xMidYMid meet">
<metadata>
Created by potrace 1.16, written by Peter Selinger 2001-2019
</metadata>
<g transform="translate(0.000000,636.000000) scale(0.100000,-0.100000)"
fill="#000000" stroke="none">
<path d="M297 6196 c-68 -25 -97 -66 -97 -138 0 -24 100 -477 222 -1009 l223
-965 40 14 c22 8 88 17 148 20 59 2 107 9 107 14 0 8 -207 908 -416 1813 -46
198 -58 223 -124 249 -48 19 -54 19 -103 2z"/>
<path d="M5095 6191 c-30 -13 -47 -30 -63 -62 -14 -27 -108 -417 -247 -1022
-124 -537 -225 -979 -225 -981 0 -2 48 -6 108 -8 59 -3 126 -12 149 -20 l42
-15 10 46 c6 25 107 467 226 981 164 711 214 944 209 972 -8 49 -38 86 -88
109 -51 23 -71 23 -121 0z"/>
<path d="M1542 5855 c-64 -54 -62 -36 -62 -572 l0 -488 40 69 c152 259 419
486 706 600 91 36 230 75 269 76 17 0 14 5 -15 31 -59 52 -225 158 -297 191
-161 73 -309 108 -483 115 -125 5 -126 5 -158 -22z"/>
<path d="M3650 5865 c-115 -21 -244 -62 -335 -105 -84 -40 -231 -135 -293
-189 l-33 -29 48 -6 c26 -4 103 -26 170 -48 295 -97 565 -306 742 -574 55 -83
71 -102 72 -83 1 13 1 233 -1 489 -2 455 -2 466 -23 497 -36 53 -64 63 -174
62 -54 0 -132 -7 -173 -14z"/>
<path d="M2570 5244 c-154 -23 -333 -93 -470 -183 -81 -53 -211 -182 -270
-267 -60 -86 -131 -232 -159 -325 -18 -60 -41 -160 -41 -178 0 -5 40 -11 89
-13 111 -7 198 -44 265 -112 l44 -46 723 0 722 0 56 53 c71 68 145 98 260 105
l83 5 -6 49 c-10 69 -51 197 -96 295 -205 442 -692 693 -1200 617z m-219 -587
c122 -81 65 -272 -81 -272 -52 0 -87 19 -124 69 -29 38 -29 124 0 163 46 63
143 82 205 40z m957 3 c73 -45 94 -147 44 -218 -28 -39 -98 -67 -147 -58 -50
10 -102 59 -116 109 -34 127 108 235 219 167z"/>
<path d="M1344 3968 c-43 -20 -58 -106 -30 -172 19 -47 72 -104 120 -129 31
-16 59 -22 116 -22 64 0 82 4 123 28 59 35 101 92 117 157 15 61 6 104 -27
130 -24 18 -40 20 -212 19 -106 0 -195 -5 -207 -11z"/>
<path d="M3733 3956 c-25 -22 -28 -31 -27 -80 4 -174 200 -289 358 -210 100
51 166 178 132 258 -8 19 -23 39 -34 45 -13 7 -94 11 -211 11 -186 0 -190 0
-218 -24z"/>
<path d="M760 3802 c-19 -9 -45 -32 -57 -51 -21 -31 -23 -46 -23 -170 -1 -75
-1 -639 -1 -1254 0 -1246 -5 -1163 70 -1209 l36 -23 1965 0 c1958 0 1965 0
2000 20 19 12 43 36 55 55 20 35 20 46 20 1292 l0 1257 -21 28 c-45 61 -77 73
-194 73 l-108 0 -17 -67 c-47 -191 -205 -348 -395 -394 -71 -17 -200 -17 -270
0 -195 48 -360 216 -400 406 l-11 55 -657 0 -657 0 -14 -57 c-23 -102 -68
-182 -145 -259 -187 -187 -473 -214 -703 -65 -98 63 -187 191 -214 306 -7 28
-13 56 -15 63 -6 20 -200 16 -244 -6z m3298 -1028 c12 -8 30 -31 40 -51 11
-24 27 -40 47 -46 49 -17 118 -64 148 -102 58 -73 42 -156 -37 -194 -57 -28
-94 -22 -147 26 -78 70 -229 50 -229 -31 0 -34 36 -59 128 -91 42 -15 114 -45
160 -67 132 -65 206 -167 219 -301 14 -152 -76 -286 -225 -334 -40 -13 -57
-25 -72 -50 -20 -35 -71 -63 -112 -63 -37 0 -88 37 -104 75 -8 19 -20 35 -27
35 -28 0 -139 62 -181 100 -72 67 -82 143 -25 199 52 53 125 48 194 -13 48
-42 104 -59 184 -54 81 4 121 31 121 80 0 53 -52 94 -184 143 -208 79 -265
122 -307 234 -54 144 20 325 159 390 37 18 53 32 66 61 32 74 114 98 184 54z"/>
</g>
</svg>
