<?xml version="1.0" standalone="no"?>
<!DOCTYPE svg PUBLIC "-//W3C//DTD SVG 20010904//EN"
 "http://www.w3.org/TR/2001/REC-SVG-20010904/DTD/svg10.dtd">
<svg version="1.0" xmlns="http://www.w3.org/2000/svg"
 width="584.000000pt" height="556.000000pt" viewBox="0 0 584.000000 556.000000"
 preserveAspectRatio="xMidYMid meet">
<metadata>
Created by potrace 1.16, written by Peter Selinger 2001-2019
</metadata>
<g transform="translate(0.000000,556.000000) scale(0.100000,-0.100000)"
fill="#000000" stroke="none">
<path d="M1118 3880 c-251 -5 -268 -6 -295 -26 -15 -12 -36 -35 -46 -52 -17
-29 -18 -93 -18 -1281 0 -1396 -5 -1297 70 -1343 l36 -23 1965 0 c1958 0 1965
0 2000 20 19 12 43 36 55 55 20 35 20 49 23 1255 2 671 0 1239 -3 1263 -7 48
-49 103 -92 121 -29 12 -3149 21 -3695 11z m3020 -1046 c12 -8 30 -31 40 -51
11 -24 27 -40 47 -46 49 -17 118 -64 148 -102 58 -73 42 -156 -37 -194 -57
-28 -94 -22 -147 26 -78 70 -229 50 -229 -31 0 -34 36 -59 128 -91 42 -15 114
-45 160 -67 132 -65 206 -167 219 -301 14 -152 -76 -286 -225 -334 -40 -13
-57 -25 -72 -50 -20 -35 -71 -63 -112 -63 -37 0 -88 37 -104 75 -8 19 -20 35
-27 35 -28 0 -139 62 -181 100 -72 67 -82 143 -25 199 52 53 125 48 194 -13
48 -42 104 -59 184 -54 81 4 121 31 121 80 0 53 -52 94 -184 143 -208 79 -265
122 -307 234 -54 144 20 325 159 390 37 18 53 32 66 61 32 74 114 98 184 54z"/>
</g>
</svg>
